# xmcd
#
# Track frame offsets:
#	150
#	35107
#	54637
#	76970
#	101765
#	137107
#	152802
#	172812
#	190897
#	208385
#	222762
#	237910
#	261497
#	280712
#	299365
#
# Disc length: 4247 seconds
#
# Revision: 2
# Processed by: cddbd v1.5.2PL0 Copyright (c) Steve Scherf et al.
# Submitted via: EasyCDDAExtractor 11.5.0.1
#
DISCID=e710950f
DTITLE=Silver Convention - The Best Of Silver Convention - Get Up And Boogie
DYEAR=1994
DGENRE=Disco
TTITLE0=Fly Robin Fly
TTITLE1=Save Me
TTITLE2=I Like it
TTITLE3=Another Girl
TTITLE4=Get Up And Boogie
TTITLE5=Play Me Like A Yo-Yo
TTITLE6=San Francisco Hustle
TTITLE7=No, No, Joe
TTITLE8=You've Got What It Takes
TTITLE9=I'm Not A Slot Machine
TTITLE10=Everybody's Talkin' ('Bout Love)
TTITLE11=Telegram
TTITLE12=Blame It On The Music
TTITLE13=Mission To Venus
TTITLE14=Spend The Night With Me
EXTD=
EXTT0=
EXTT1=
EXTT2=
EXTT3=
EXTT4=
EXTT5=
EXTT6=
EXTT7=
EXTT8=
EXTT9=
EXTT10=
EXTT11=
EXTT12=
EXTT13=
EXTT14=
PLAYORDER=
